<svg width="109" height="107" viewBox="0 0 109 107" fill="none" xmlns="http://www.w3.org/2000/svg">
<path d="M81.7032 78.8079L82.139 79.2281H82.7444H87.7245L105.395 96.1165C106.596 97.3231 107.117 98.6325 107.117 99.856C107.117 101.083 106.593 102.397 105.383 103.607C104.272 104.718 102.558 105.34 100.744 105.34C98.93 105.34 97.2166 104.718 96.1052 103.607L96.0898 103.591L96.074 103.576L79.2281 87.6791V82.7444V82.139L78.8079 81.7032L76.9002 79.725L75.9163 78.7046L74.8419 79.6293C69.8798 83.9005 64.035 87.0222 57.7257 88.7708C51.4164 90.5195 44.7985 90.8519 38.3457 89.7444L38.342 89.7438C19.3537 86.5335 4.17442 70.6688 1.85252 51.5471L1.85157 51.5397C1.00042 44.8117 1.69965 37.9782 3.89575 31.5621C6.09185 25.1459 9.72661 19.3172 14.5219 14.5219C19.3172 9.72661 25.1459 6.09185 31.5621 3.89575C37.9782 1.69965 44.8117 1.00042 51.5397 1.85159L51.5471 1.8525C70.6688 4.17442 86.5335 19.3537 89.7437 38.342L89.7444 38.3457C90.8519 44.7985 90.5195 51.4164 88.7708 57.7257C87.0222 64.035 83.9005 69.8798 79.6293 74.8419L78.7046 75.9163L79.725 76.9002L81.7032 78.8079ZM12.6407 45.9344C12.6407 64.3553 27.5135 79.2281 45.9344 79.2281C64.3553 79.2281 79.2281 64.3553 79.2281 45.9344C79.2281 27.5135 64.3553 12.6407 45.9344 12.6407C27.5135 12.6407 12.6407 27.5135 12.6407 45.9344Z" fill="white" stroke="#274C70" stroke-width="3"/>
</svg>
