<svg width="367" height="361" viewBox="0 0 367 361" fill="none" xmlns="http://www.w3.org/2000/svg">
<path d="M278.417 263.596L278.853 264.016H279.458H297.708L358.439 322.061C358.443 322.065 358.447 322.068 358.451 322.072C363.096 326.723 365.338 332.029 365.338 337.25C365.338 342.475 363.092 347.786 358.439 352.439C353.885 356.994 347.118 359.338 340.25 359.338C333.382 359.338 326.615 356.994 322.061 352.439L322.045 352.424L322.03 352.409L264.016 297.662V279.458V278.853L263.596 278.417L257.153 271.736L256.169 270.715L255.095 271.64C237.938 286.408 217.729 297.202 195.913 303.248C174.098 309.294 151.216 310.444 128.904 306.614L128.9 306.613C63.2173 295.509 10.7493 240.676 2.71653 174.523L2.71559 174.516C-0.227326 151.253 2.1903 127.626 9.78348 105.442C17.3766 83.2575 29.9441 63.1043 46.5242 46.5242C63.1043 29.9441 83.2575 17.3766 105.442 9.78348C127.626 2.1903 151.253 -0.227326 174.516 2.71561L174.523 2.71651C240.676 10.7493 295.509 63.2173 306.613 128.9L306.614 128.904C310.444 151.216 309.294 174.098 303.248 195.913C297.202 217.729 286.408 237.938 271.64 255.095L270.715 256.169L271.736 257.153L278.417 263.596ZM46.2583 155.137C46.2583 215.382 94.8924 264.016 155.137 264.016C215.382 264.016 264.016 215.382 264.016 155.137C264.016 94.8924 215.382 46.2583 155.137 46.2583C94.8924 46.2583 46.2583 94.8924 46.2583 155.137Z" fill="white" stroke="#274C70" stroke-width="3"/>
<path d="M157.603 46.5036L157.523 46.498L157.443 46.5011L144.367 47.0005C144.113 47.0067 143.692 47.0639 143.294 47.1211C142.809 47.1907 142.172 47.2898 141.435 47.4091C139.959 47.648 138.06 47.9716 136.127 48.3123C132.31 48.9854 128.222 49.7492 127.106 50.0525C125.127 50.5906 123.298 51.709 122.012 52.6344C121.358 53.1053 120.819 53.5446 120.441 53.8678C120.252 54.0298 120.102 54.1636 119.998 54.2587C119.946 54.3063 119.905 54.3444 119.876 54.3715L119.842 54.404L119.832 54.4138L119.828 54.4171L119.827 54.4183L119.826 54.4188C119.826 54.419 119.826 54.4192 120.866 55.5L119.826 54.4192L119.366 54.8618V55.5V62.3562C119.366 64.2516 120.033 68.0295 121.128 72.3289C122.236 76.6794 123.826 81.7332 125.753 86.2318C126.765 88.5925 128.664 91.5394 130.502 94.149C132.359 96.7852 134.226 99.179 135.232 100.454L135.682 101.025H136.409H179.661H180.388L180.838 100.455C181.845 99.1793 183.712 96.7856 185.568 94.1492C187.406 91.5392 189.306 88.5921 190.317 86.2312C192.245 81.7329 193.834 76.6792 194.942 72.3288C196.036 68.0294 196.703 64.2516 196.703 62.3562V57V56.0365L195.829 55.6366L195.828 55.6364L195.828 55.6362L195.828 55.636L195.827 55.6358L195.814 55.6297C195.801 55.6235 195.779 55.6131 195.749 55.5985C195.688 55.5692 195.594 55.523 195.468 55.4592C195.217 55.3315 194.842 55.1336 194.361 54.8605C193.409 54.3189 192.044 53.4826 190.42 52.3138C189.979 51.9556 189.359 51.6746 188.796 51.452C188.151 51.1966 187.365 50.9378 186.507 50.6832C184.788 50.1729 182.686 49.6523 180.643 49.1869C178.596 48.7205 176.587 48.3048 175.045 48.0054C174.275 47.8558 173.616 47.7342 173.125 47.6495C172.88 47.6073 172.67 47.573 172.505 47.5489L172.502 47.5483C172.404 47.534 172.235 47.5091 172.08 47.502L157.603 46.5036ZM123.936 182.862L123.41 185.231L125.764 184.643L187.6 169.184L189.018 168.829L188.701 167.403L176.247 111.364L175.986 110.19H174.783H141.289H140.086L139.825 111.364L123.936 182.862ZM122.086 195.008L121.187 195.233L120.986 196.138L103.583 274.452L103.057 276.821L105.411 276.233L205.811 251.133L207.229 250.779L206.912 249.353L191.339 179.28L191.005 177.777L189.511 178.15L122.086 195.008ZM101.733 286.6L100.834 286.824L100.633 287.729L98.5357 297.164L98.3127 298.167L99.1679 298.737L157.204 337.428L158.12 338.039L158.977 337.348L215.493 291.821L216.219 291.237L216.017 290.328L209.551 261.231L209.216 259.728L207.722 260.101L101.733 286.6Z" fill="white" stroke="#274C70" stroke-width="3"/>
</svg>
