<svg width="28" height="28" viewBox="0 0 28 28" fill="none" xmlns="http://www.w3.org/2000/svg">
<path d="M19.8333 24.5H8.16659C3.49992 24.5 2.33325 23.3333 2.33325 18.6667V9.33333C2.33325 4.66667 3.49992 3.5 8.16659 3.5H19.8333C24.4999 3.5 25.6666 4.66667 25.6666 9.33333V18.6667C25.6666 23.3333 24.4999 24.5 19.8333 24.5Z" stroke="#274C70" stroke-width="1.5" stroke-linecap="round" stroke-linejoin="round"/>
<g opacity="0.4">
<path d="M16.3333 9.33334H22.1666M17.4999 14H22.1666M19.8333 18.6667H22.1666M13.9999 19.054C13.9214 18.2351 13.5588 17.4694 12.9749 16.8898C12.391 16.3102 11.6228 15.9532 10.8033 15.8807C10.2136 15.8223 9.61959 15.8223 9.02992 15.8807C8.21122 15.9554 7.44416 16.3131 6.86073 16.8923C6.27729 17.4715 5.91396 18.2359 5.83325 19.054M9.91775 13.174C10.4778 13.174 11.0149 12.9515 11.4109 12.5555C11.8069 12.1595 12.0294 11.6224 12.0294 11.0623C12.0294 10.5023 11.8069 9.96518 11.4109 9.56916C11.0149 9.17315 10.4778 8.95067 9.91775 8.95067C9.3577 8.95067 8.82059 9.17315 8.42458 9.56916C8.02856 9.96518 7.80609 10.5023 7.80609 11.0623C7.80609 11.6224 8.02856 12.1595 8.42458 12.5555C8.82059 12.9515 9.3577 13.174 9.91775 13.174V13.174Z" stroke="#274C70" stroke-width="1.5" stroke-linecap="round" stroke-linejoin="round"/>
</g>
</svg>
