<svg width="30" height="30" viewBox="0 0 30 30" fill="none" xmlns="http://www.w3.org/2000/svg">
<path opacity="0.4" d="M25.0501 8.52749L17.85 3.48999C15.8875 2.11499 12.875 2.18999 10.9875 3.65249L4.72505 8.53999C3.47505 9.51499 2.48755 11.515 2.48755 13.09V21.715C2.48755 24.9025 5.07505 27.5025 8.26255 27.5025H21.7375C24.925 27.5025 27.5126 24.915 27.5126 21.7275V13.2525C27.5126 11.565 26.4251 9.48999 25.0501 8.52749Z" fill="#1C3751"/>
<path d="M15 23.4375C14.4875 23.4375 14.0625 23.0125 14.0625 22.5V18.75C14.0625 18.2375 14.4875 17.8125 15 17.8125C15.5125 17.8125 15.9375 18.2375 15.9375 18.75V22.5C15.9375 23.0125 15.5125 23.4375 15 23.4375Z" fill="#1C3751"/>
</svg>
