<svg width="20" height="20" viewBox="0 0 20 20" fill="none" xmlns="http://www.w3.org/2000/svg">
<path d="M4.47714 20H0.330714V6.64714H4.47714V20ZM2.40143 4.82571C1.07571 4.82571 0 3.72714 0 2.40143C0 1.07571 1.075 0 2.40143 0C3.72786 0 4.80286 1.075 4.80286 2.40143C4.80286 3.72714 3.72714 4.82571 2.40143 4.82571ZM19.9957 20H15.8586V13.5C15.8586 11.9507 15.8271 9.96429 13.7029 9.96429C11.5471 9.96429 11.2164 11.6471 11.2164 13.3886V20H7.07429V6.64714H11.0507V8.46857H11.1086C11.6621 7.41929 13.0143 6.31214 15.0314 6.31214C19.2279 6.31214 19.9993 9.07572 19.9993 12.665V20H19.9957Z" fill="#274C70"/>
</svg>
