<svg width="28" height="28" viewBox="0 0 28 28" fill="none" xmlns="http://www.w3.org/2000/svg">
<path d="M9.33329 25.6667H18.6666C23.3566 25.6667 24.1966 23.7883 24.4416 21.5017L25.3166 12.1683C25.6316 9.32167 24.815 7 19.8333 7H8.16663C3.18496 7 2.36829 9.32167 2.68329 12.1683L3.55829 21.5017C3.80329 23.7883 4.64329 25.6667 9.33329 25.6667Z" stroke="#274C70" stroke-width="1.5" stroke-miterlimit="10" stroke-linecap="round" stroke-linejoin="round"/>
<path opacity="0.4" d="M9.33325 7.00001V6.06668C9.33325 4.00168 9.33325 2.33334 13.0666 2.33334H14.9333C18.6666 2.33334 18.6666 4.00168 18.6666 6.06668V7.00001" stroke="#274C70" stroke-width="1.5" stroke-miterlimit="10" stroke-linecap="round" stroke-linejoin="round"/>
<g opacity="0.4">
<path d="M25.2584 12.8333C22.6289 14.743 19.5583 15.9552 16.3334 16.3567M3.05322 13.1483C5.67822 14.945 8.64156 16.03 11.6632 16.3683M16.3334 15.1667V16.3567C16.3334 17.6283 16.3217 18.6667 14.0001 18.6667C11.6901 18.6667 11.6667 17.64 11.6667 16.3683V15.1667C11.6667 14 11.6667 14 12.8334 14H15.1667C16.3334 14 16.3334 14 16.3334 15.1667Z" stroke="#274C70" stroke-width="1.5" stroke-miterlimit="10" stroke-linecap="round" stroke-linejoin="round"/>
</g>
</svg>
