<svg width="24" height="28" viewBox="0 0 24 28" fill="none" xmlns="http://www.w3.org/2000/svg">
<path opacity="0.4" d="M8 14.2333H15M8 18.9H12.38" stroke="#274C70" stroke-width="1.5" stroke-miterlimit="10" stroke-linecap="round" stroke-linejoin="round"/>
<path d="M10 6.99999H14C16 6.99999 16 5.83333 16 4.66666C16 2.33333 15 2.33333 14 2.33333H10C9 2.33333 8 2.33333 8 4.66666C8 6.99999 9 6.99999 10 6.99999Z" stroke="#274C70" stroke-width="1.5" stroke-miterlimit="10" stroke-linecap="round" stroke-linejoin="round"/>
<path d="M16 4.69C19.33 4.9 21 6.335 21 11.6667V18.6667C21 23.3333 20 25.6667 15 25.6667H9C4 25.6667 3 23.3333 3 18.6667V11.6667C3 6.34667 4.67 4.9 8 4.69" stroke="#274C70" stroke-width="1.5" stroke-miterlimit="10" stroke-linecap="round" stroke-linejoin="round"/>
</svg>
