<svg width="13" height="12" viewBox="0 0 13 12" fill="none" xmlns="http://www.w3.org/2000/svg">
<g clip-path="url(#clip0_13_151)">
<path d="M10.3923 3.95999V6.53499C10.3923 8.07499 9.44462 8.73499 8.02308 8.73499H3.29001C3.0477 8.73499 2.81616 8.71499 2.60078 8.66999C2.46616 8.64999 2.33693 8.61499 2.21847 8.57499C1.41078 8.29499 0.920776 7.64499 0.920776 6.53499V3.95999C0.920776 2.41999 1.86847 1.75999 3.29001 1.75999H8.02308C9.22924 1.75999 10.0962 2.23499 10.3277 3.31999C10.3654 3.51999 10.3923 3.72499 10.3923 3.95999Z" stroke="#148812" stroke-width="1.5" stroke-miterlimit="10" stroke-linecap="round" stroke-linejoin="round"/>
<path opacity="0.4" d="M12.0067 5.46001V8.03501C12.0067 9.57501 11.059 10.235 9.63742 10.235H4.90435C4.50589 10.235 4.14512 10.185 3.83281 10.075C3.19204 9.85501 2.75589 9.40001 2.59973 8.67001C2.81512 8.71501 3.04665 8.73501 3.28896 8.73501H8.02204C9.44358 8.73501 10.3913 8.07501 10.3913 6.53501V3.96001C10.3913 3.72501 10.3697 3.51501 10.3267 3.32001C11.3497 3.52001 12.0067 4.19001 12.0067 5.46001V5.46001Z" stroke="#148812" stroke-width="1.5" stroke-miterlimit="10" stroke-linecap="round" stroke-linejoin="round"/>
<path d="M5.65384 6.56999C6.03085 6.56999 6.39243 6.43092 6.65902 6.18337C6.92561 5.93583 7.07538 5.60008 7.07538 5.24999C7.07538 4.89991 6.92561 4.56416 6.65902 4.31661C6.39243 4.06906 6.03085 3.92999 5.65384 3.92999C5.27682 3.92999 4.91525 4.06906 4.64866 4.31661C4.38207 4.56416 4.2323 4.89991 4.2323 5.24999C4.2323 5.60008 4.38207 5.93583 4.64866 6.18337C4.91525 6.43092 5.27682 6.56999 5.65384 6.56999V6.56999Z" stroke="#148812" stroke-width="1.5" stroke-miterlimit="10" stroke-linecap="round" stroke-linejoin="round"/>
<path opacity="0.4" d="M2.57434 4.14999V6.34999M8.73326 4.14999V6.34999" stroke="#148812" stroke-width="1.5" stroke-miterlimit="10" stroke-linecap="round" stroke-linejoin="round"/>
</g>
<defs>
<clipPath id="clip0_13_151">
<rect width="12.9231" height="12" fill="white"/>
</clipPath>
</defs>
</svg>
