<svg width="30" height="30" viewBox="0 0 30 30" fill="none" xmlns="http://www.w3.org/2000/svg">
<path opacity="0.4" d="M16.1125 7.34875H6.3875C5.35749 7.35205 4.3706 7.76268 3.64226 8.49102C2.91393 9.21935 2.5033 10.2062 2.5 11.2363V25.4363C2.5 27.2488 3.8 28.0238 5.3875 27.1363L10.3 24.3988C10.825 24.1113 11.675 24.1113 12.1875 24.3988L17.1 27.1363C18.6875 28.0238 19.9875 27.2488 19.9875 25.4363V11.2363C19.9883 10.7266 19.8887 10.2217 19.6945 9.75049C19.5002 9.27928 19.215 8.85095 18.8551 8.48996C18.4953 8.12898 18.0679 7.8424 17.5973 7.64659C17.1267 7.45078 16.6222 7.34957 16.1125 7.34875Z" fill="#1C3751"/>
<path d="M27.5 6.3875V20.5875C27.5 22.4 26.2 23.1625 24.6125 22.2875L20 19.7125V11.2375C20 9.1 18.25 7.35 16.1125 7.35H10V6.3875C10 4.25 11.75 2.5 13.8875 2.5H23.6125C25.75 2.5 27.5 4.25 27.5 6.3875Z" fill="#1C3751"/>
</svg>
