<svg width="16" height="16" viewBox="0 0 16 16" fill="none" xmlns="http://www.w3.org/2000/svg">
<path d="M7.62755 15.2551C3.4231 15.2551 0 11.832 0 7.62755C0 3.4231 3.4231 0 7.62755 0C11.832 0 15.2551 3.4231 15.2551 7.62755C15.2551 11.832 11.832 15.2551 7.62755 15.2551ZM7.62755 1.11623C4.0333 1.11623 1.11623 4.04074 1.11623 7.62755C1.11623 11.2144 4.0333 14.1389 7.62755 14.1389C11.2218 14.1389 14.1389 11.2144 14.1389 7.62755C14.1389 4.04074 11.2218 1.11623 7.62755 1.11623ZM15.4411 16C15.2998 16 15.1584 15.9479 15.0467 15.8363L13.5584 14.348C13.4546 14.243 13.3964 14.1012 13.3964 13.9536C13.3964 13.8059 13.4546 13.6642 13.5584 13.5592C13.7742 13.3434 14.1314 13.3434 14.3472 13.5592L15.8355 15.0475C16.0513 15.2633 16.0513 15.6205 15.8355 15.8363C15.7239 15.9479 15.5825 16 15.4411 16Z" fill="#878787"/>
</svg>
